<?xml version="1.0" encoding="UTF-8"?>
<svg version="1.1" xmlns="http://www.w3.org/2000/svg" width="591" height="422">
<path d="M0 0 C0.99 0 1.98 0 3 0 C3 33.99 3 67.98 3 103 C-2.61 103 -8.22 103 -14 103 C-14.33 78.91 -14.66 54.82 -15 30 C-19.62 32.97 -24.24 35.94 -29 39 C-31.65217643 40.36192844 -34.31373202 41.70661172 -37 43 C-38.34175973 43.98866506 -39.67896002 44.9838154 -41 46 C-41.66 46 -42.32 46 -43 46 C-43 68.11 -43 90.22 -43 113 C-27.82 113 -12.64 113 3 113 C3 146.33 3 179.66 3 214 C-17.79 214 -38.58 214 -60 214 C-60 189.58 -60 165.16 -60 140 C-54.39 140 -48.78 140 -43 140 C-43 158.81 -43 177.62 -43 197 C-33.43 197 -23.86 197 -14 197 C-14 174.89 -14 152.78 -14 130 C-29.18 130 -44.36 130 -60 130 C-60.72195857 107.2315659 -60.72195857 107.2315659 -60.87890625 97.47851562 C-60.98628186 90.83759733 -61.11284187 84.20117068 -61.35791016 77.5637207 C-61.55442046 72.20751042 -61.66128162 66.85611407 -61.70779037 61.49657631 C-61.74089703 59.45902966 -61.80556825 57.42172977 -61.90314102 55.38625145 C-62.49955327 42.4212801 -62.49955327 42.4212801 -60 37 C-55.64539468 32.2423097 -49.91992534 29.52599201 -44.09893417 26.94898415 C-41.45308962 25.75272722 -39.0179941 24.29497748 -36.5625 22.75 C-35.80710937 22.29882812 -35.05171875 21.84765625 -34.2734375 21.3828125 C-30.79148804 19.26492571 -27.3665449 17.0593961 -23.93359375 14.86328125 C-17.28508425 10.64045963 -10.60665013 6.44044147 -3.75 2.5625 C-1.1678179 1.25631164 -1.1678179 1.25631164 0 0 Z " fill="#EFEFEF" transform="translate(324,79)"/>
<path d="M0 0 C5.94528428 1.48632107 11.43578994 4.43190305 17 7 C17 30.76 17 54.52 17 79 C25.58 78.67 34.16 78.34 43 78 C43.495 76.515 43.495 76.515 44 75 C44.66 74.67 45.32 74.34 46 74 C46.33 57.5 46.66 41 47 24 C52.28 26.64 57.56 29.28 63 32 C63.12365217 39.02915026 63.21436678 46.05766666 63.2746582 53.08764648 C63.29979315 55.47870919 63.33390633 57.86969514 63.37719727 60.26049805 C63.43789061 63.69859764 63.46622072 67.13568096 63.48828125 70.57421875 C63.51408768 71.64210129 63.5398941 72.70998383 63.56648254 73.81022644 C63.56960611 82.08664667 63.56960611 82.08664667 60.46948242 85.21411133 C59.24708862 86.09812622 59.24708862 86.09812622 58 87 C58.68154921 90.09875438 58.68154921 90.09875438 61.03411865 91.28755188 C63 93 63 93 63.48101807 95.86637878 C63.4676944 97.6151104 63.4676944 97.6151104 63.45410156 99.39916992 C63.45468567 100.04334366 63.45526978 100.6875174 63.45587158 101.35121155 C63.45308714 103.47818089 63.42198214 105.60374462 63.390625 107.73046875 C63.38316379 109.20590957 63.37747029 110.6813603 63.37347412 112.15681458 C63.35820801 116.03851729 63.3189187 119.91962045 63.2746582 123.80108643 C63.23372602 127.76249073 63.21546755 131.72399201 63.1953125 135.68554688 C63.1524246 143.45730446 63.08416248 151.2285682 63 159 C60.89551062 158.85890014 58.7914123 158.71195825 56.6875 158.5625 C54.92986328 158.44068359 54.92986328 158.44068359 53.13671875 158.31640625 C50 158 50 158 47 157 C46.99857498 156.32205887 46.99714996 155.64411774 46.99568176 154.94563293 C46.97599354 147.8887182 46.92173784 140.83266946 46.84741211 133.77612305 C46.82421678 131.14272271 46.80983284 128.5092294 46.80444336 125.87573242 C46.79516572 122.08974157 46.75419623 118.30521625 46.70703125 114.51953125 C46.7109639 113.34227982 46.71489655 112.16502838 46.71894836 110.95210266 C46.69930527 109.85133896 46.67966217 108.75057526 46.65942383 107.61645508 C46.65276199 106.65048904 46.64610016 105.68452301 46.63923645 104.68928528 C46.05322989 101.17919995 46.05322989 101.17919995 41 97 C33.08 96.67 25.16 96.34 17 96 C17 113.82 17 131.64 17 150 C8 150 8 150 0 149 C0 99.83 0 50.66 0 0 Z " fill="#EEEEEE" transform="translate(334,146)"/>
<path d="M0 0 C0.99 0 1.98 0 3 0 C3 24.09 3 48.18 3 73 C-2.61 73 -8.22 73 -14 73 C-14 57.82 -14 42.64 -14 27 C-17.3 28.98 -20.6 30.96 -24 33 C-27.15891388 34.80873295 -30.32070617 36.6033733 -33.5 38.375 C-34.29664063 38.82488281 -35.09328125 39.27476562 -35.9140625 39.73828125 C-37.05488281 40.37443359 -37.05488281 40.37443359 -38.21875 41.0234375 C-38.89873047 41.40419434 -39.57871094 41.78495117 -40.27929688 42.17724609 C-42 43 -42 43 -44 43 C-43.67 70.39 -43.34 97.78 -43 126 C-34.75 124.35 -26.5 122.7 -18 121 C-16.68 121 -15.36 121 -14 121 C-14.03029297 120.08186523 -14.06058594 119.16373047 -14.09179688 118.21777344 C-14.20413479 114.80356489 -14.31588746 111.38933823 -14.42724609 107.97509766 C-14.47551479 106.49885301 -14.52401512 105.02261592 -14.57275391 103.54638672 C-14.64286574 101.42156905 -14.71213796 99.29672539 -14.78125 97.171875 C-14.82314453 95.8940918 -14.86503906 94.61630859 -14.90820312 93.29980469 C-14.9758731 90.86728514 -15 88.43346062 -15 86 C-14.14535156 85.93941406 -13.29070312 85.87882812 -12.41015625 85.81640625 C-10.75306641 85.69072266 -10.75306641 85.69072266 -9.0625 85.5625 C-7.96035156 85.48128906 -6.85820312 85.40007812 -5.72265625 85.31640625 C-3.08890097 85.29581916 -3.08890097 85.29581916 -2 84 C-0.35 84 1.3 84 3 84 C3 101.16 3 118.32 3 136 C-1.90875 136.7425 -6.8175 137.485 -11.875 138.25 C-22.32600559 139.85241373 -32.66507326 141.58353704 -42.91796875 144.203125 C-48.53732211 145.30010881 -54.29143808 145.56087985 -60 146 C-60 108.38 -60 70.76 -60 32 C-52.08 28.04 -44.16 24.08 -36 20 C-33.36 18.35 -30.72 16.7 -28 15 C-25.7977097 13.79988179 -23.58050555 12.62663166 -21.34765625 11.484375 C-20.76205429 11.18307678 -20.17645233 10.88177856 -19.57310486 10.5713501 C-17.73790799 9.62759857 -15.900414 8.68844746 -14.0625 7.75 C-12.19989927 6.79669473 -10.33783961 5.84237347 -8.47691345 4.88580322 C-6.80750499 4.02797468 -5.13634202 3.17356311 -3.46508789 2.31933594 C-1.12169466 1.21828325 -1.12169466 1.21828325 0 0 Z " fill="#F0F0F0" transform="translate(254,159)"/>
<path d="M0 0 C0.99388733 -0.00133942 1.98777466 -0.00267883 3.01177979 -0.00405884 C18.64092597 0.00049191 33.87586413 0.73846904 49.37744141 2.83544922 C52.47084979 3.24613002 55.56610638 3.60104857 58.66796875 3.94140625 C77.79191359 6.10058659 95.50743993 11.10959588 113.75 17.0625 C114.50936859 17.30676727 115.26873718 17.55103455 116.05111694 17.80270386 C127.09713895 21.37474408 137.21926356 25.88061951 147.5 31.25 C150.65068234 32.78505181 153.82181618 34.27290123 157 35.75 C157.73863281 36.09546875 158.47726562 36.4409375 159.23828125 36.796875 C160.99130616 37.61647106 162.74550647 38.43355251 164.5 39.25 C164.5 39.91 164.5 40.57 164.5 41.25 C165.16 41.25 165.82 41.25 166.5 41.25 C166.5 42.24 166.5 43.23 166.5 44.25 C162.96506216 43.60033575 159.61128165 42.71416982 156.1875 41.625 C154.35559788 41.05866419 152.52366372 40.49243119 150.69140625 39.92724609 C149.14906248 39.45059039 147.60746106 38.97152928 146.06640625 38.49072266 C133.40920011 34.56708279 120.69306594 31.25246879 107.75 28.4375 C107.07722015 28.29065765 106.40444031 28.14381531 105.71127319 27.99252319 C91.14339521 24.83033911 76.78389713 22.76393619 61.94946289 21.44506836 C59.09911884 21.19076705 56.24977075 20.92696745 53.40039062 20.66210938 C19.71469143 17.58662 -13.79256754 17.55347974 -47.5 20.25 C-48.62112183 20.33767639 -48.62112183 20.33767639 -49.76489258 20.42712402 C-82.90413068 23.03949097 -114.77950047 29.23161438 -146.5 39.25 C-147.88898041 39.68079338 -149.27827484 40.11057637 -150.66796875 40.5390625 C-152.78510698 41.19229716 -154.90035515 41.85177273 -157.01171875 42.5234375 C-159.49256867 43.2478301 -161.95922049 43.78304593 -164.5 44.25 C-164.5 43.26 -164.5 42.27 -164.5 41.25 C-163.84 41.25 -163.18 41.25 -162.5 41.25 C-162.5 40.59 -162.5 39.93 -162.5 39.25 C-161.365625 38.96125 -160.23125 38.6725 -159.0625 38.375 C-157.886875 38.00375 -156.71125 37.6325 -155.5 37.25 C-155.17 36.59 -154.84 35.93 -154.5 35.25 C-152.12268938 33.92229445 -149.75752078 32.6907824 -147.3125 31.5 C-146.21566895 30.96330688 -146.21566895 30.96330688 -145.09667969 30.41577148 C-142.90232973 29.35075426 -140.70207802 28.29892641 -138.5 27.25 C-137.44683594 26.74082031 -136.39367187 26.23164063 -135.30859375 25.70703125 C-103.53508688 11.22025992 -68.98729823 4.69018278 -34.5 1.25 C-33.04787109 1.10208008 -33.04787109 1.10208008 -31.56640625 0.95117188 C-21.06153158 0.00668444 -10.53906772 0.00841238 0 0 Z " fill="#E8E8E8" transform="translate(294.5,298.75)"/>
<path d="M0 0 C1.2065625 0.0309375 1.2065625 0.0309375 2.4375 0.0625 C2.4375 1.0525 2.4375 2.0425 2.4375 3.0625 C-2.8425 3.0625 -8.1225 3.0625 -13.5625 3.0625 C-13.5625 14.6125 -13.5625 26.1625 -13.5625 38.0625 C-15.2125 38.0625 -16.8625 38.0625 -18.5625 38.0625 C-16.5825 37.5675 -16.5825 37.5675 -14.5625 37.0625 C-14.59279297 36.14436523 -14.62308594 35.22623047 -14.65429688 34.28027344 C-14.76663479 30.86606489 -14.87838746 27.45183823 -14.98974609 24.03759766 C-15.03801479 22.56135301 -15.08651512 21.08511592 -15.13525391 19.60888672 C-15.20536574 17.48406905 -15.27463796 15.35922539 -15.34375 13.234375 C-15.4065918 11.3177002 -15.4065918 11.3177002 -15.47070312 9.36230469 C-15.5383731 6.92978514 -15.5625 4.49596062 -15.5625 2.0625 C-14.28052734 1.97162109 -14.28052734 1.97162109 -12.97265625 1.87890625 C-11.31556641 1.75322266 -11.31556641 1.75322266 -9.625 1.625 C-8.52285156 1.54378906 -7.42070312 1.46257812 -6.28515625 1.37890625 C-3.25411285 1.02666161 -3.00301569 0.07324429 0 0 Z " fill="#545454" transform="translate(254.5625,242.9375)"/>
<path d="M0 0 C5.94 2.475 5.94 2.475 12 5 C12 5.66 12 6.32 12 7 C12.66 7 13.32 7 14 7 C14 7.99 14 8.98 14 10 C9.95295419 9.27595226 6.10929598 8.16553713 2.1875 6.9375 C1.02605469 6.57527344 -0.13539063 6.21304687 -1.33203125 5.83984375 C-2.21246094 5.56269531 -3.09289062 5.28554688 -4 5 C-3.01 4.67 -2.02 4.34 -1 4 C-0.67 2.68 -0.34 1.36 0 0 Z " fill="#E8E8E8" transform="translate(447,333)"/>
<path d="M0 0 C1.32 0.33 2.64 0.66 4 1 C3.34 1.66 2.68 2.32 2 3 C2.66 3.66 3.32 4.32 4 5 C2.39850114 5.67305018 0.79368971 6.33822227 -0.8125 7 C-1.70582031 7.37125 -2.59914062 7.7425 -3.51953125 8.125 C-6 9 -6 9 -9 9 C-9 8.01 -9 7.02 -9 6 C-8.34 6 -7.68 6 -7 6 C-7 5.34 -7 4.68 -7 4 C-4.69 3.34 -2.38 2.68 0 2 C0 1.34 0 0.68 0 0 Z " fill="#D5D5D5" transform="translate(139,334)"/>
<path d="M0 0 C0 0.99 0 1.98 0 3 C-0.66 3 -1.32 3 -2 3 C-1.67 4.32 -1.34 5.64 -1 7 C-3.64 7 -6.28 7 -9 7 C-6.82616588 2.86971516 -4.97872903 0 0 0 Z " fill="#D3D3D3" transform="translate(149,331)"/>
<path d="M0 0 C3.465 1.485 3.465 1.485 7 3 C6.01 3.33 5.02 3.66 4 4 C4 4.66 4 5.32 4 6 C1.36 5.67 -1.28 5.34 -4 5 C-3.01 4.67 -2.02 4.34 -1 4 C-0.26676204 1.98491642 -0.26676204 1.98491642 0 0 Z " fill="#C1C1C1" transform="translate(447,333)"/>
<path d="M0 0 C1.2065625 0.0309375 1.2065625 0.0309375 2.4375 0.0625 C2.4375 1.0525 2.4375 2.0425 2.4375 3.0625 C-3.5025 3.0625 -9.4425 3.0625 -15.5625 3.0625 C-15.5625 2.7325 -15.5625 2.4025 -15.5625 2.0625 C-14.70785156 2.00191406 -13.85320312 1.94132813 -12.97265625 1.87890625 C-11.31556641 1.75322266 -11.31556641 1.75322266 -9.625 1.625 C-8.52285156 1.54378906 -7.42070312 1.46257812 -6.28515625 1.37890625 C-3.25411285 1.02666161 -3.00301569 0.07324429 0 0 Z " fill="#868686" transform="translate(254.5625,242.9375)"/>
<path d="M0 0 C0.99 0 1.98 0 3 0 C3 4.62 3 9.24 3 14 C2.67 14 2.34 14 2 14 C1.93941406 13.24074219 1.87882813 12.48148437 1.81640625 11.69921875 C1.73261719 10.70535156 1.64882812 9.71148437 1.5625 8.6875 C1.48128906 7.70136719 1.40007812 6.71523437 1.31640625 5.69921875 C1.08187441 2.90624401 1.08187441 2.90624401 0 0 Z " fill="#474747" transform="translate(238,246)"/>
<path d="M0 0 C2.475 0.495 2.475 0.495 5 1 C5 1.66 5 2.32 5 3 C5.66 3 6.32 3 7 3 C7 3.99 7 4.98 7 6 C5.35 5.67 3.7 5.34 2 5 C2.66 4.67 3.32 4.34 4 4 C4 3.34 4 2.68 4 2 C2.68 1.34 1.36 0.68 0 0 Z " fill="#727272" transform="translate(454,337)"/>
<path d="M0 0 C0.99 0.33 1.98 0.66 3 1 C1.68 1.33 0.36 1.66 -1 2 C-1 2.66 -1 3.32 -1 4 C-0.34 4.33 0.32 4.66 1 5 C-0.65 5.33 -2.3 5.66 -4 6 C-4 5.01 -4 4.02 -4 3 C-3.34 3 -2.68 3 -2 3 C-2 2.34 -2 1.68 -2 1 C-1.34 0.67 -0.68 0.34 0 0 Z " fill="#757575" transform="translate(134,337)"/>
</svg>
